# Created by FreeCAD <http://www.freecadweb.org>
v -9.112097 0.000000 0.000000
v 0.000000 0.000000 0.000000
v 0.000000 0.000000 8.000000
v -9.112097 0.000000 8.000000
v 9.112097 0.000000 0.000000
v 9.112097 0.000000 8.000000
v -9.112097 28.978418 0.000000
v -9.112097 28.978418 8.000000
v -16.781689 28.978418 0.000000
v 0.000000 47.210529 0.000000
v 0.000000 47.210529 8.000000
v -16.781689 28.978418 8.000000
v 9.112097 28.978418 0.000000
v 9.112097 28.978418 8.000000
v 16.781689 28.978418 0.000000
v 16.781689 28.978418 8.000000
vn 0.000000 -1.000000 0.000000
vn 0.000000 -1.000000 0.000000
vn 0.000000 -1.000000 0.000000
vn 0.000000 -1.000000 0.000000
vn -1.000000 0.000000 0.000000
vn -1.000000 0.000000 0.000000
vn 0.000000 0.000000 -1.000000
vn 0.000000 0.000000 -1.000000
vn 0.000000 0.000000 -1.000000
vn 0.000000 0.000000 1.000000
vn 0.000000 0.000000 1.000000
vn 0.000000 0.000000 1.000000
vn 1.000000 0.000000 0.000000
vn 1.000000 -0.000000 0.000000
vn 0.000000 -0.000000 -1.000000
vn 0.000000 0.000000 -1.000000
vn 0.000000 0.000000 -1.000000
vn 0.000000 -0.000000 1.000000
vn 0.000000 0.000000 1.000000
vn 0.000000 0.000000 1.000000
vn 0.000000 -1.000000 0.000000
vn 0.000000 -1.000000 0.000000
vn -0.735767 0.677235 0.000000
vn -0.735767 0.677235 0.000000
vn 0.000000 -1.000000 0.000000
vn 0.000000 -1.000000 0.000000
vn 0.735767 0.677235 -0.000000
vn 0.735767 0.677235 0.000000
f 1//1 2//1 3//1
f 1//2 3//2 4//2
f 2//3 5//3 3//3
f 3//4 5//4 6//4
f 7//5 1//5 4//5
f 7//6 4//6 8//6
f 1//7 7//7 2//7
f 9//8 10//8 7//8
f 7//9 10//9 2//9
f 8//10 4//10 3//10
f 11//11 12//11 8//11
f 11//12 8//12 3//12
f 5//13 13//13 6//13
f 6//14 13//14 14//14
f 13//15 5//15 2//15
f 10//16 15//16 13//16
f 10//17 13//17 2//17
f 6//18 14//18 3//18
f 16//19 11//19 14//19
f 14//20 11//20 3//20
f 9//21 7//21 8//21
f 9//22 8//22 12//22
f 10//23 9//23 12//23
f 10//24 12//24 11//24
f 13//25 15//25 14//25
f 14//26 15//26 16//26
f 15//27 10//27 16//27
f 16//28 10//28 11//28
